<?xml version="1.0" encoding="utf-8"?>
<!-- Generator: Adobe Illustrator 28.1.0, SVG Export Plug-In . SVG Version: 6.00 Build 0)  -->
<svg version="1.1" id="Layer_1" xmlns="http://www.w3.org/2000/svg" xmlns:xlink="http://www.w3.org/1999/xlink" x="0px" y="0px"
	 viewBox="0 0 128 128" style="enable-background:new 0 0 128 128;" xml:space="preserve">
<style type="text/css">
	.st0{fill:#FFFFFF;}
</style>
<rect x="62.5" y="-28" transform="matrix(0.7071 -0.7071 0.7071 0.7071 -26.5097 64)" class="st0" width="3" height="184"/>
<rect x="30.5" y="-12" transform="matrix(0.7071 -0.7071 0.7071 0.7071 -47.196 46.0589)" class="st0" width="3" height="184"/>
<rect x="30.5" y="36" transform="matrix(0.7071 -0.7071 0.7071 0.7071 -81.1371 60.1177)" class="st0" width="3" height="184"/>
<rect x="79.8" y="-60" transform="matrix(0.7071 -0.7071 0.7071 0.7071 1.1848 66.8604)" class="st0" width="3" height="184"/>
<rect x="109.8" y="-76" transform="matrix(0.7071 -0.7071 0.7071 0.7071 21.2853 83.3873)" class="st0" width="3" height="184"/>
<rect x="-28" y="62.5" transform="matrix(0.7071 -0.7071 0.7071 0.7071 -26.5097 64.0001)" class="st0" width="184" height="3"/>
<rect x="4" y="78.5" transform="matrix(0.7071 -0.7071 0.7071 0.7071 -28.4508 91.3139)" class="st0" width="184" height="3"/>
<rect x="4" y="126.5" transform="matrix(0.7071 -0.7071 0.7071 0.7071 -62.392 105.3729)" class="st0" width="184" height="3"/>
<rect x="-45.3" y="30.5" transform="matrix(0.7071 -0.7071 0.7071 0.7071 -8.9493 42.3945)" class="st0" width="184" height="3"/>
<rect x="-75.3" y="14.5" transform="matrix(0.7071 -0.7071 0.7071 0.7071 -6.4224 16.495)" class="st0" width="184" height="3"/>
</svg>
