<!-- (c) Carrd Inc. All rights reserved. All logos and trademarks are property of their respective owners. -->
<svg xmlns="http://www.w3.org/2000/svg" id="icon">
<path d="M2.3,18.6c9.1-4,15.2-6.6,18.2-7.9c8.7-3.6,10.5-4.2,11.7-4.3 c0.3,0,0.8,0.1,1.2,0.4c0.3,0.3,0.4,0.6,0.4,0.9C34,7.9,34,8.4,34,8.9c-0.5,5-2.5,17-3.5,22.5c-0.4,2.3-1.3,3.1-2.1,3.2 c-1.8,0.2-3.2-1.2-5-2.3c-2.8-1.8-4.3-2.9-7-4.7c-3.1-2-1.1-3.2,0.7-5c0.5-0.5,8.5-7.8,8.6-8.4c0-0.1,0-0.4-0.2-0.5 c-0.2-0.2-0.4-0.1-0.7-0.1c-0.3,0.1-4.7,3-13.2,8.7c-1.3,0.9-2.4,1.3-3.4,1.3c-1.1,0-3.3-0.6-4.9-1.1c-2-0.6-3.5-1-3.4-2.1 C0.1,19.7,0.9,19.2,2.3,18.6z"/>
</svg>